<svg xmlns="http://www.w3.org/2000/svg"  viewBox="0 0 48 48" width="480px" height="480px"><path fill="#ffbf06" d="M31.403,3.904c2.744,0.046,5.653,0.183,7.929,1.717c2.748,1.852,3.913,5.292,4.56,8.542 c1.437,7.226,1.171,14.853-1.281,21.8c-0.445,1.26-0.967,2.509-1.761,3.584c-1.382,1.872-3.511,3.093-5.746,3.743 c-2.234,0.651-4.586,0.776-6.913,0.797c-5.185,0.047-10.375-0.403-15.475-1.341c-1.469-0.27-2.965-0.594-4.235-1.381 c-3.023-1.872-3.978-5.772-4.473-9.293c-0.755-5.369-1.058-10.823-0.521-16.217c0.2-2.017,0.525-4.048,1.328-5.909 s2.13-3.556,3.937-4.474c1.695-0.861,3.656-0.982,5.555-1.086C14.308,4.387,26.161,3.816,31.403,3.904z"/><path fill="#d6e5e5" d="M39.792,21.733C38.899,14.666,31.879,9.732,25.41,8.167c-6.151-1.574-12.222,3.779-15.139,8.696 c-3.36,5.664-1.918,12.805,2.464,17.467c2.144,2.281,5.097,4.142,8.168,4.84c1.837,0.417,3.586,0.204,5.407-0.177 c1.492-0.312,2.986-0.646,4.404-1.215c3.066-1.229,5.214-3.484,6.746-6.374C39.018,28.465,40.218,25.104,39.792,21.733z M35.61,27.775c-0.877,2.192-2.157,4.615-4.144,5.993c-1.08,0.749-2.3,1.193-3.559,1.536c-1.282,0.349-2.621,0.684-3.94,0.846 c-2.627,0.321-5.354-1.06-7.366-2.646c-3.939-3.106-6.052-8.312-4.392-13.194c0.891-2.622,3.007-4.958,5.119-6.684 c1.954-1.597,4.645-2.999,7.223-2.339c4.642,1.123,9.75,4.151,11.537,8.825C37.061,22.659,36.604,25.29,35.61,27.775z"/><path fill="#d6e5e5" d="M30.434,21.49c-0.867-0.814-2.083-1.332-3.109-1.912c-2.166-1.224-4.332-2.448-6.498-3.672 c-0.911-0.515-2.992,2.904-2.019,3.454c1.877,1.061,3.754,2.122,5.632,3.182c0.939,0.53,1.881,1.054,2.816,1.591 c0.055,0.032,0.108,0.067,0.163,0.098c-0.016,0.014-0.026,0.024-0.03,0.029c-0.074,0.051-0.149,0.102-0.226,0.148 c-0.164,0.098-0.335,0.186-0.507,0.268c-0.001,0-0.269,0.121-0.322,0.147c-0.842,0.358-1.705,0.668-2.559,0.995 c-1.844,0.705-3.695,1.443-5.344,2.543c-0.869,0.58,1.088,4.075,2.019,3.454c1.886-1.259,3.548-1.814,5.609-2.604 c2.119-0.813,4.706-1.65,5.368-4.116C31.778,23.791,31.422,22.418,30.434,21.49z"/><path d="M44.042,12.552c-0.541-2.134-1.371-4.268-2.84-5.942c-1.585-1.805-3.804-2.663-6.139-2.98 c-1.213-0.164-2.437-0.205-3.66-0.226c-5.762-0.091-11.561,0.175-17.314,0.495c-2.474,0.138-4.965,0.427-6.954,2.045 c-1.845,1.5-2.939,3.731-3.514,5.998c-0.68,2.678-0.833,5.52-0.891,8.272c-0.062,2.913,0.091,5.829,0.394,8.726 c0.438,4.186,0.837,9.556,4.427,12.379c2.016,1.585,4.735,1.893,7.19,2.277c2.806,0.439,5.634,0.736,8.47,0.884 c2.847,0.149,5.748,0.229,8.588-0.067c2.491-0.26,4.992-0.893,7.083-2.323c2.116-1.447,3.325-3.513,4.173-5.889 c0.908-2.543,1.514-5.184,1.864-7.86C45.6,23.129,45.335,17.655,44.042,12.552z M44.221,24.94c-0.121,2.57-0.483,5.126-1.11,7.623 c-0.608,2.424-1.336,5.156-2.986,7.099c-3.351,3.946-9.134,3.992-13.878,3.921c-2.714-0.041-5.426-0.217-8.122-0.527 c-2.57-0.296-5.305-0.568-7.773-1.382c-4.449-1.468-5.418-6.347-5.958-10.441c-0.709-5.377-0.967-10.876-0.309-16.272 c0.289-2.367,0.859-4.792,2.284-6.752c1.507-2.073,3.684-2.957,6.177-3.199c2.161-0.209,4.349-0.241,6.517-0.327 c3.428-0.135,6.858-0.259,10.288-0.284c0.684-0.005,1.367-0.005,2.051,0.006c2.347,0.042,4.852,0.107,6.976,1.229 c1.948,1.029,3.209,2.895,3.986,4.909c0.832,2.158,1.249,4.486,1.541,6.771C44.23,19.84,44.341,22.396,44.221,24.94z"/><path d="M23.004,39.899c-0.719,0-1.456-0.068-2.214-0.241c-3.019-0.686-6.087-2.502-8.42-4.984 c-4.781-5.088-5.821-12.516-2.529-18.064c3.21-5.412,9.49-10.512,15.692-8.926c6.448,1.56,13.82,6.604,14.754,13.987l0,0 c0.376,2.971-0.404,6.231-2.387,9.969c-1.72,3.244-4.01,5.404-7,6.604c-1.444,0.579-2.947,0.917-4.488,1.24 C25.334,39.708,24.196,39.899,23.004,39.899z M23.175,8.388c-4.997,0-9.821,4.259-12.475,8.73 c-3.065,5.168-2.079,12.105,2.398,16.869c2.2,2.342,5.084,4.053,7.913,4.695c1.829,0.415,3.578,0.158,5.195-0.179 c1.496-0.313,2.952-0.641,4.32-1.189c2.763-1.108,4.885-3.118,6.49-6.145c1.882-3.549,2.627-6.615,2.277-9.375l0,0 c-0.873-6.914-7.871-11.659-14.003-13.142C24.587,8.473,23.879,8.388,23.175,8.388z M23.179,36.697 c-2.88,0-5.509-1.712-6.889-2.801c-4.354-3.433-6.185-8.958-4.557-13.748c1.013-2.976,3.428-5.399,5.276-6.91 c1.529-1.25,4.559-3.232,7.663-2.436c4.466,1.079,9.938,4.046,11.88,9.13c0.898,2.349,0.742,4.976-0.479,8.029l0,0 c-1.199,2.998-2.614,5.032-4.323,6.218c-0.98,0.68-2.126,1.176-3.714,1.607c-1.279,0.349-2.651,0.693-4.01,0.859 C23.743,36.681,23.46,36.697,23.179,36.697z M23.201,11.62c-2.255,0-4.386,1.434-5.558,2.392 c-1.747,1.428-4.026,3.707-4.962,6.458c-1.492,4.39,0.207,9.47,4.229,12.641c1.392,1.099,4.154,2.884,6.996,2.543 c1.295-0.158,2.625-0.493,3.869-0.832c1.473-0.4,2.522-0.853,3.405-1.465c1.544-1.07,2.841-2.956,3.966-5.767 c1.123-2.81,1.278-5.197,0.474-7.301c-1.807-4.728-7.156-7.542-11.188-8.517C24.021,11.667,23.608,11.62,23.201,11.62z M35.61,27.776h0.01H35.61z"/><path d="M20.209,32.393c-0.524,0-1.114-0.438-1.663-1.259c-0.551-0.825-1.343-2.554-0.393-3.188 c1.664-1.11,3.524-1.861,5.443-2.595l0.67-0.253c0.627-0.236,1.255-0.473,1.872-0.734l0.21-0.097l0.007,0.01 c0.021-0.017,0.044-0.03,0.067-0.043c-0.421-0.239-0.822-0.465-1.223-0.69l-6.638-3.748c-0.689-0.39-0.671-1.423,0.049-2.696 c0.597-1.057,1.6-2.117,2.462-1.629l6.498,3.672c0.255,0.145,0.521,0.284,0.791,0.426c0.844,0.443,1.717,0.902,2.415,1.558 c1.101,1.033,1.535,2.604,1.133,4.1c-0.688,2.563-3.236,3.529-5.284,4.306l-1.112,0.423c-1.703,0.645-3.173,1.2-4.786,2.278 C20.566,32.339,20.391,32.392,20.209,32.393z M26.869,25.125c-0.038,0.021-0.075,0.038-0.108,0.053l-0.206,0.095 c-0.654,0.278-1.296,0.52-1.937,0.761l-0.664,0.251c-1.864,0.713-3.668,1.44-5.246,2.493c-0.048,0.11,0.049,0.745,0.501,1.528 c0.432,0.748,0.869,1.079,0.997,1.083c1.674-1.13,3.193-1.705,4.953-2.37l1.112-0.424c2.024-0.767,4.118-1.561,4.674-3.63 c0.311-1.155-0.009-2.318-0.853-3.111l0,0c-0.599-0.562-1.411-0.988-2.196-1.401c-0.278-0.146-0.554-0.291-0.817-0.439 l-6.498-3.672c-0.123,0.018-0.646,0.441-1.108,1.266c-0.438,0.783-0.446,1.253-0.399,1.336l6.617,3.729 c0.605,0.34,1.212,0.681,1.814,1.027l0.1,0.06c0.13,0.08,0.255,0.238,0.272,0.391c0.019,0.151,0.004,0.326-0.104,0.435 c-0.031,0.039-0.06,0.061-0.101,0.089c-0.084,0.057-0.167,0.113-0.256,0.165c-0.174,0.104-0.357,0.2-0.545,0.29L26.869,25.125z"/></svg>