<svg xmlns="http://www.w3.org/2000/svg" xmlns:xlink="http://www.w3.org/1999/xlink" width="1080" zoomAndPan="magnify" viewBox="0 0 810 809.999993" height="1080" preserveAspectRatio="xMidYMid meet" version="1.2"><g id="d18dd14d4a"><path style=" stroke:none;fill-rule:evenodd;fill:#fb0f3a;fill-opacity:1;" d="M 254.816406 275.957031 C 278.785156 286.546875 281.695312 312.320312 281.871094 337.222656 C 281.988281 353.222656 277.679688 372.65625 272.152344 390.285156 C 255.164062 444.683594 214.847656 499.957031 157.542969 531.144531 C 157.425781 531.203125 157.367188 531.261719 157.25 531.316406 C 154.398438 532.945312 137.527344 542.488281 120.65625 530.621094 C 103.785156 518.632812 106.984375 500.945312 106.984375 500.945312 L 117.339844 407.273438 C 117.746094 403.667969 118.328125 400 118.851562 396.335938 C 120.539062 384.582031 122.226562 373.0625 120.421875 364.859375 C 118.910156 357.9375 110.007812 339.726562 87.902344 340.539062 C 67.597656 341.238281 56.484375 356.480469 56.484375 373.355469 C 56.484375 382.257812 60.207031 389.0625 66.898438 395.113281 C 68.703125 396.742188 70.738281 397.847656 72.773438 398.953125 C 73.296875 399.304688 73.878906 399.59375 74.460938 399.886719 C 76.496094 401.105469 79.117188 403.203125 81.441406 405.996094 L 81.558594 406.109375 C 82.492188 407.214844 86.910156 412.453125 86.273438 420.597656 C 86.039062 424.261719 84.234375 429.210938 81.386719 433.515625 C 76.148438 441.484375 64.511719 443.113281 57.589844 441.078125 C 44.148438 437.179688 33.503906 427.753906 23.960938 414.664062 C 16.398438 404.132812 10.988281 388.773438 10.988281 374.167969 C 10.988281 330.183594 44.5 296.03125 87.902344 296.03125 C 101.691406 296.03125 114.664062 298.53125 125.832031 304.527344 C 134.269531 309.0625 142.765625 316.046875 148.582031 322.503906 C 157.832031 332.683594 164.171875 346.53125 165.976562 361.71875 C 168.070312 379.347656 165.164062 402.96875 162.429688 424.320312 L 157.25 459.113281 L 156.667969 463.128906 C 155.96875 467.726562 161.554688 470.691406 165.164062 467.609375 C 168.421875 464.875 171.15625 462.429688 171.386719 462.257812 C 232.070312 409.367188 236.375 343.683594 236.375 343.683594 C 236.375 343.683594 205.828125 337.6875 206.0625 308.773438 C 206.121094 299.113281 211.9375 287.886719 220.140625 281.253906 C 233.582031 270.371094 250.335938 273.980469 254.816406 275.957031 Z M 772.027344 346.765625 C 784.128906 345.777344 796.171875 354.503906 798.847656 368.058594 C 800.710938 381.382812 792.566406 395.113281 772.027344 402.15625 C 764.757812 404.65625 758.125 406.402344 752.714844 407.855469 C 750.328125 408.496094 748.175781 409.078125 746.3125 409.601562 C 746.777344 412.800781 747.476562 449.398438 724.84375 477.789062 C 709.601562 495.535156 694.707031 502.460938 672.542969 502.460938 C 647.46875 502.460938 626.699219 494.140625 617.738281 473.542969 C 606.625 489.484375 589.695312 503.855469 561.828125 503.390625 C 547.980469 503.15625 534.773438 498.097656 526.453125 484.191406 C 510.105469 501.179688 493.757812 504.671875 472.8125 503.332031 C 466.007812 503.332031 448.085938 497.863281 442.269531 484.597656 C 433.542969 493.210938 420.683594 498.5625 408.816406 501.179688 C 399.21875 503.332031 390.140625 502.75 387.058594 502.402344 C 377.515625 501.296875 369.023438 496.058594 363.4375 489.484375 C 362.332031 488.148438 361.808594 487.214844 361.167969 485.996094 C 360.878906 485.472656 360.585938 484.890625 360.238281 484.25 C 359.074219 482.269531 358.085938 480.175781 357.210938 477.90625 C 354.011719 481.980469 350.289062 485.703125 346.273438 489.253906 C 340.222656 494.722656 333.53125 497.921875 331.265625 498.910156 C 326.550781 501.0625 321.546875 502.34375 316.253906 502.984375 C 306.710938 504.207031 300.953125 503.390625 298.507812 503.042969 L 298.042969 502.984375 C 291.179688 502.050781 284.664062 499.726562 279.019531 495.476562 C 277.097656 494.199219 275.527344 492.859375 274.421875 491.636719 C 273.144531 490.183594 272.039062 488.671875 270.992188 487.15625 C 270.933594 487.042969 270.875 486.925781 270.757812 486.808594 C 270.640625 486.691406 270.582031 486.519531 270.46875 486.402344 L 270.523438 486.34375 C 264.882812 477.265625 264.417969 467.144531 266.917969 455.390625 L 289.550781 376.613281 C 289.550781 376.613281 291.585938 367.363281 301.300781 362.765625 C 307.992188 359.625 316.136719 361.195312 319.570312 362.765625 C 338.769531 371.550781 332.425781 390.460938 332.425781 390.460938 C 332.078125 391.683594 330.273438 397.90625 327.832031 406.460938 L 327.832031 406.578125 L 327.773438 406.632812 C 323.0625 423.214844 315.964844 448.234375 312.296875 460.742188 L 312.296875 460.800781 C 312.007812 461.734375 311.019531 465.105469 311.714844 468.191406 C 312.125 470.167969 313.578125 472.148438 316.253906 473.601562 C 317.070312 474.066406 318 474.417969 318.929688 474.648438 C 322.363281 475.40625 326.957031 474.941406 331.265625 471.390625 C 338.886719 465.105469 346.914062 454.808594 353.78125 439.738281 C 356.164062 434.5625 358.316406 429.09375 360.238281 423.449219 C 362.796875 415.828125 365.707031 409.367188 369.777344 402.15625 C 382.171875 380.105469 400.382812 361.894531 424.640625 361.894531 C 436.453125 361.894531 454.488281 365.90625 462.285156 373.414062 C 468.972656 351.828125 475.546875 329.195312 477.585938 322.269531 C 477.992188 320.933594 478.574219 319.304688 479.328125 318.023438 C 482.007812 313.542969 489.859375 303.769531 504.988281 307.375 C 514.644531 309.644531 519.183594 315.695312 521.101562 321.222656 C 522.035156 324.015625 522.324219 326.691406 522.324219 328.671875 C 522.382812 330.648438 521.566406 334.023438 521.566406 334.023438 L 486.777344 454.34375 C 483.75 463.769531 483.167969 466.039062 485.613281 470.34375 C 486.660156 472.089844 489.742188 474.824219 494.28125 475.171875 C 497.015625 475.347656 501.320312 474.707031 504.988281 472.4375 C 508.769531 470.167969 515.515625 464.234375 520.578125 456.496094 C 524.1875 450.96875 527.210938 443.230469 530.761719 432 C 531.574219 429.5 536.925781 411.929688 538.265625 407.507812 C 543.441406 389.878906 545.769531 379.8125 545.769531 379.8125 C 545.769531 379.8125 547.75 369.398438 555.429688 364.917969 C 559.792969 362.300781 566.714844 359.738281 574.683594 361.71875 C 580.503906 363.113281 585.214844 367.886719 587.601562 371.261719 C 593.300781 379.636719 589.8125 389.179688 589.8125 389.179688 L 569.160156 461.789062 C 569.160156 461.789062 566.480469 469.703125 573.636719 473.542969 C 576.839844 475.230469 581.085938 475.8125 585.449219 473.542969 C 604.765625 463.128906 617.445312 424.207031 617.445312 424.207031 C 621.867188 412.394531 633.910156 392.789062 642.871094 384 C 657.359375 369.746094 672.136719 361.894531 691.566406 361.894531 C 708.730469 361.894531 724.03125 367.769531 734.851562 378.53125 C 740.726562 378.707031 747.359375 376.613281 747.359375 376.613281 C 747.359375 376.613281 747.417969 371.609375 747.359375 371.261719 C 747.011719 364.917969 752.714844 348.394531 772.027344 346.765625 Z M 670.214844 470.808594 C 686.914062 470.808594 705.589844 452.074219 708.730469 425.949219 C 709.019531 418.15625 708.382812 407.566406 693.71875 405.355469 C 680.6875 403.433594 670.15625 412.917969 663.875 421.179688 C 660.675781 425.3125 655.320312 435.609375 652.355469 446.429688 C 649.328125 457.660156 652.527344 470.285156 668.527344 470.75 C 669.109375 470.808594 669.632812 470.808594 670.214844 470.808594 Z M 435.40625 450.210938 C 430.050781 458.242188 421.152344 462.488281 411.261719 462.605469 C 402.242188 462.605469 396.832031 455.332031 396.832031 443.230469 C 396.832031 429.09375 405.90625 413.441406 414.808594 404.25 C 419.753906 399.1875 430.984375 391.972656 440.816406 401.746094 C 444.773438 405.703125 452.683594 424.378906 435.40625 450.210938 Z M 326.957031 347.636719 C 338.710938 347.636719 347.554688 338.910156 347.554688 327.332031 C 347.554688 315.695312 338.476562 306.621094 326.957031 306.621094 C 315.496094 306.621094 306.539062 315.695312 306.539062 327.332031 C 306.539062 338.738281 315.496094 347.636719 326.957031 347.636719 Z M 602.085938 327.332031 C 602.085938 338.910156 593.1875 347.636719 581.433594 347.636719 C 569.972656 347.636719 561.011719 338.738281 561.011719 327.332031 C 561.011719 315.695312 569.972656 306.621094 581.433594 306.621094 C 593.011719 306.621094 602.085938 315.695312 602.085938 327.332031 Z M 602.085938 327.332031 "/></g></svg>